<svg width="25" height="24" viewBox="0 0 25 24" fill="none" xmlns="http://www.w3.org/2000/svg">
<path d="M7.5225 0H17.6025C21.4425 0 24.5625 3.12 24.5625 6.96V17.04C24.5625 18.8859 23.8292 20.6562 22.524 21.9615C21.2187 23.2667 19.4484 24 17.6025 24H7.5225C3.6825 24 0.5625 20.88 0.5625 17.04V6.96C0.5625 5.11409 1.29578 3.34379 2.60104 2.03854C3.90629 0.733284 5.67659 0 7.5225 0ZM7.2825 2.4C6.13677 2.4 5.03796 2.85514 4.2278 3.6653C3.41764 4.47546 2.9625 5.57427 2.9625 6.72V17.28C2.9625 19.668 4.8945 21.6 7.2825 21.6H17.8425C18.9882 21.6 20.087 21.1449 20.8972 20.3347C21.7074 19.5245 22.1625 18.4257 22.1625 17.28V6.72C22.1625 4.332 20.2305 2.4 17.8425 2.4H7.2825ZM18.8625 4.2C19.2603 4.2 19.6419 4.35804 19.9232 4.63934C20.2045 4.92064 20.3625 5.30218 20.3625 5.7C20.3625 6.09783 20.2045 6.47936 19.9232 6.76066C19.6419 7.04197 19.2603 7.2 18.8625 7.2C18.4647 7.2 18.0831 7.04197 17.8018 6.76066C17.5205 6.47936 17.3625 6.09783 17.3625 5.7C17.3625 5.30218 17.5205 4.92064 17.8018 4.63934C18.0831 4.35804 18.4647 4.2 18.8625 4.2ZM12.5625 6C14.1538 6 15.6799 6.63214 16.8051 7.75736C17.9304 8.88258 18.5625 10.4087 18.5625 12C18.5625 13.5913 17.9304 15.1174 16.8051 16.2426C15.6799 17.3679 14.1538 18 12.5625 18C10.9712 18 9.44508 17.3679 8.31986 16.2426C7.19464 15.1174 6.5625 13.5913 6.5625 12C6.5625 10.4087 7.19464 8.88258 8.31986 7.75736C9.44508 6.63214 10.9712 6 12.5625 6ZM12.5625 8.4C11.6077 8.4 10.692 8.77928 10.0169 9.45442C9.34178 10.1295 8.9625 11.0452 8.9625 12C8.9625 12.9548 9.34178 13.8705 10.0169 14.5456C10.692 15.2207 11.6077 15.6 12.5625 15.6C13.5173 15.6 14.433 15.2207 15.1081 14.5456C15.7832 13.8705 16.1625 12.9548 16.1625 12C16.1625 11.0452 15.7832 10.1295 15.1081 9.45442C14.433 8.77928 13.5173 8.4 12.5625 8.4Z" fill="#A39E9E"/>
</svg>
