<svg width="25" height="24" viewBox="0 0 25 24" fill="none" xmlns="http://www.w3.org/2000/svg">
<path d="M21.1939 3.49206C20.0882 2.38078 18.7712 1.49967 17.3197 0.90013C15.8682 0.300592 14.3112 -0.00537612 12.7396 7.14833e-05C6.15472 7.14833e-05 0.787889 5.34005 0.787889 11.892C0.787889 13.992 1.34266 16.032 2.37985 17.832L0.691406 24L7.02306 22.344C8.77181 23.292 10.7376 23.796 12.7396 23.796C19.3246 23.796 24.6914 18.456 24.6914 11.904C24.6914 8.72405 23.4492 5.73605 21.1939 3.49206ZM12.7396 21.78C10.9547 21.78 9.20598 21.3 7.67432 20.4L7.31251 20.184L3.5497 21.168L4.5507 17.52L4.3095 17.148C3.31783 15.5724 2.79127 13.7511 2.7899 11.892C2.7899 6.44405 7.25221 2.00407 12.7276 2.00407C15.3809 2.00407 17.8773 3.03606 19.7467 4.90806C20.6723 5.82481 21.4058 6.91525 21.9047 8.11616C22.4037 9.31707 22.6581 10.6046 22.6532 11.904C22.6773 17.352 18.215 21.78 12.7396 21.78ZM18.1909 14.388C17.8894 14.244 16.418 13.524 16.1527 13.416C15.8753 13.32 15.6824 13.272 15.4773 13.56C15.2723 13.86 14.7055 14.532 14.5366 14.724C14.3678 14.928 14.1869 14.952 13.8854 14.796C13.5839 14.652 12.619 14.328 11.4854 13.32C10.5929 12.528 10.002 11.556 9.82105 11.256C9.65221 10.956 9.79693 10.8 9.95372 10.644C10.0864 10.512 10.2552 10.296 10.3999 10.128C10.5447 9.96004 10.605 9.82804 10.7015 9.63604C10.7979 9.43204 10.7497 9.26404 10.6773 9.12004C10.605 8.97605 10.002 7.51205 9.76075 6.91205C9.51955 6.33605 9.26628 6.40805 9.08537 6.39605H8.50648C8.30146 6.39605 7.98789 6.46805 7.7105 6.76805C7.44517 7.06805 6.67332 7.78805 6.67332 9.25204C6.67332 10.716 7.74668 12.132 7.89141 12.324C8.03613 12.528 10.002 15.528 12.9929 16.812C13.7045 17.124 14.2592 17.304 14.6934 17.436C15.405 17.664 16.0562 17.628 16.5748 17.556C17.1537 17.472 18.3477 16.836 18.5889 16.14C18.8422 15.444 18.8422 14.856 18.7577 14.724C18.6733 14.592 18.4924 14.532 18.1909 14.388Z" fill="#A39E9E"/>
</svg>
