<svg width="25" height="24" viewBox="0 0 25 24" fill="none" xmlns="http://www.w3.org/2000/svg">
<path d="M21.7591 0C22.4664 0 23.1446 0.280951 23.6447 0.781048C24.1448 1.28115 24.4258 1.95942 24.4258 2.66667V21.3333C24.4258 22.0406 24.1448 22.7189 23.6447 23.219C23.1446 23.719 22.4664 24 21.7591 24H3.09245C2.3852 24 1.70693 23.719 1.20683 23.219C0.706733 22.7189 0.425781 22.0406 0.425781 21.3333V2.66667C0.425781 1.95942 0.706733 1.28115 1.20683 0.781048C1.70693 0.280951 2.3852 0 3.09245 0H21.7591ZM21.0924 20.6667V13.6C21.0924 12.4472 20.6345 11.3416 19.8193 10.5264C19.0042 9.71128 17.8986 9.25333 16.7458 9.25333C15.6124 9.25333 14.2924 9.94667 13.6524 10.9867V9.50667H9.93245V20.6667H13.6524V14.0933C13.6524 13.0667 14.4791 12.2267 15.5058 12.2267C16.0009 12.2267 16.4756 12.4233 16.8257 12.7734C17.1758 13.1235 17.3724 13.5983 17.3724 14.0933V20.6667H21.0924ZM5.59911 7.41333C6.1932 7.41333 6.76295 7.17733 7.18303 6.75725C7.60312 6.33717 7.83912 5.76742 7.83912 5.17333C7.83912 3.93333 6.83912 2.92 5.59911 2.92C5.00149 2.92 4.42835 3.1574 4.00577 3.57999C3.58319 4.00257 3.34578 4.57571 3.34578 5.17333C3.34578 6.41333 4.35911 7.41333 5.59911 7.41333ZM7.45245 20.6667V9.50667H3.75911V20.6667H7.45245Z" fill="#A39E9E"/>
</svg>
